<?xml version="1.0" encoding="utf-8"?>
<!-- Generator: Adobe Illustrator 23.0.1, SVG Export Plug-In . SVG Version: 6.00 Build 0)  -->
<svg version="1.1" xmlns="http://www.w3.org/2000/svg" xmlns:xlink="http://www.w3.org/1999/xlink" x="0px" y="0px"
	 viewBox="0 0 680.3149 680.3149" enable-background="new 0 0 680.3149 680.3149" xml:space="preserve">
<g id="logo">
	<g>
		<path d="M280.4813,484.2325c18.38,7.6201,38.54,11.83,59.6801,11.83v-14.17c-19.22,0-37.54-3.82-54.25-10.75h-0.01
			c-17.3201-7.18-32.9-17.7-45.9599-30.77c-13.05-13.04-23.5801-28.63-30.76-45.96l-13.1001,5.43
			c7.9,19.05,19.47,36.2,33.8301,50.56C244.2713,464.7626,261.4213,476.3326,280.4813,484.2325z"/>
		<path d="M196.0813,280.4726c7.9-19.05,19.47-36.2,33.8301-50.56l-10.02-10.02c-15.67,15.67-28.29,34.37-36.9,55.16
			c-8.3199,20.05-12.91,42.04-12.91,65.1s4.5901,45.06,12.91,65.11l13.09-5.42c-7.6199-18.39-11.83-38.54-11.83-59.69
			C184.2513,319.0126,188.4614,298.8526,196.0813,280.4726z"/>
		<path d="M209.1814,394.4126l13.1099-5.4301c-6.25-15.04-9.6899-31.54-9.6899-48.83h-14.1799
			C198.4213,359.3726,202.2513,377.7026,209.1814,394.4126z"/>
		<path d="M240.9414,340.1526c0-13.45,2.6799-26.28,7.5299-37.97l-13.09-5.43c-5.55,13.37-8.61,28.03-8.61,43.4H240.9414z"/>
		<path d="M313.0412,405.6426c8.3501,3.47,17.51,5.38,27.1201,5.38c9.61,0,18.77-1.91,27.1199-5.38l-5.4199-13.09
			c-6.6899,2.77-14.02,4.3-21.7,4.3c-7.6801,0-15.01-1.53-21.7-4.3c-6.9302-2.87-13.1702-7.08-18.3901-12.3v-0.01
			c-5.23-5.22-9.4299-11.45-12.2999-18.38l-13.1,5.42c3.59,8.66,8.85,16.45,15.3799,22.98
			C296.5812,396.7925,304.3813,402.0626,313.0412,405.6426z"/>
		<path d="M248.4813,378.1326c5.02,12.13,12.38,23.04,21.52,32.18s20.0499,16.51,32.1801,21.52c11.7,4.86,24.53,7.54,37.98,7.54
			s26.27-2.68,37.97-7.54c12.13-5.01,23.04-12.38,32.1799-21.52c9.1401-9.14,16.5-20.05,21.52-32.18l-13.09-5.42
			c-4.3099,10.4-10.63,19.75-18.4601,27.57c-7.8298,7.84-17.1799,14.15-27.5698,18.45c-10.03,4.16-21.02,6.46-32.55,6.46
			s-22.52-2.29-32.55-6.45c-10.3999-4.31-19.75-10.62-27.5801-18.46c-7.8298-7.83-14.1499-17.19-18.45-27.58
			c-4.1599-10.03-6.4599-21.02-6.4599-32.55h-14.1799C240.9414,353.6125,243.6213,366.4326,248.4813,378.1326z"/>
		<path d="M383.5623,444.9326c-13.36,5.55-28.02,8.61-43.4,8.61c-15.37,0-30.03-3.06-43.3999-8.61
			c-13.8601-5.74-26.3301-14.15-36.78-24.6c-10.44-10.44-18.8601-22.91-24.6001-36.77l-13.09,5.42
			c6.4601,15.59,15.92,29.6201,27.67,41.3701c11.75,11.75,25.78,21.21,41.37,27.68c15.0399,6.24,31.5299,9.68,48.83,9.68
			s33.79-3.44,48.8301-9.68c15.58-6.46,29.61-15.93,41.36-27.68c11.75-11.7401,21.22-25.77,27.6801-41.36
			c6.25-15.04,9.6899-31.54,9.6899-48.84v-204.44c-4.5601-2.85-9.23-5.56-13.99-8.1c-0.0701-0.04-0.13-0.08-0.1901-0.1v212.64
			c0,7.69-0.7699,15.2-2.22,22.46c-1.4601,7.26-3.61,14.26-6.39,20.95c-5.74,13.86-14.1599,26.33-24.6,36.77
			S397.4223,439.1926,383.5623,444.9326z"/>
		<path d="M394.4123,471.1326l5.4301,13.1c19.0499-7.9,36.2-19.47,50.5599-33.83c14.3601-14.36,25.9301-31.51,33.8301-50.56
			c7.62-18.39,11.83-38.54,11.83-59.68v-183.72c-4.49-3.81-9.12-7.47-13.89-10.95c-0.09-0.07-0.1899-0.14-0.28-0.2v194.87
			c0,9.61-0.96,18.99-2.78,28.06c-1.8199,9.0699-4.5099,17.83-7.98,26.19c-7.1799,17.33-17.71,32.92-30.76,45.96
			C427.3223,453.4426,411.7324,463.9526,394.4123,471.1326z"/>
		<path d="M510.6122,169.8626c-0.1199-0.12-0.24-0.25-0.3699-0.37v170.66h-0.01c0,23.06-4.5901,45.06-12.91,65.11
			c-8.62,20.79-21.24,39.49-36.9,55.16c-15.6699,15.66-34.37,28.28-55.1599,36.9c-20.05,8.32-42.04,12.91-65.1001,12.91
			c-23.0599,0-45.05-4.59-65.1-12.91c-20.7899-8.61-39.5-21.24-55.17-36.9l-10.02,10.02c33.3401,33.35,79.4101,53.97,130.29,53.97
			c50.8701,0,96.9301-20.6201,130.28-53.97c33.3401-33.34,53.97-79.4,53.97-130.28v-155.27
			C520.0224,179.6926,515.4223,174.6726,510.6122,169.8626z"/>
		<path d="M439.3923,120.5326c-4.6199-2.09-9.3199-4.04-14.1-5.85c-0.0199-0.01-0.0399-0.01-0.0699-0.02v225.5h14.1699V120.5326z"/>
		<path d="M405.6423,367.2826c3.47-8.36,5.3801-17.52,5.3801-27.12h0.0299v-230.35c-4.67-1.44-9.4-2.73-14.1801-3.88v234.22h-0.0199
			c0,7.69-1.53,15.02-4.3,21.71c-2.87,6.93-7.08,13.17-12.2999,18.39l10.01,10.01
			C396.7923,383.7325,402.0523,375.9426,405.6423,367.2826z"/>
	</g>
	<path fill="none" d="M418.7413,307.6026c-2.1-5.0601-4.68-9.88-7.67-14.4v46.95h-0.05c0,9.61-1.91,18.77-5.38,27.13
		c-3.59,8.66-8.85,16.45-15.38,22.98l-10.01-10.01c5.22-5.22,9.43-11.46,12.3-18.39c2.77-6.69,4.3-14.02,4.3-21.71v-63.37
		c-7.08-6.34-15.23-11.51-24.14-15.2c-10.03-4.16-21.02-6.46-32.55-6.46c-11.53,0-22.52,2.29-32.55,6.45
		c-10.4,4.31-19.75,10.62-27.58,18.46c-7.83,7.83-14.15,17.18-18.45,27.57c-4.16,10.03-6.46,21.02-6.46,32.55
		c0,11.53,2.3,22.52,6.46,32.55c4.3,10.39,10.62,19.75,18.45,27.58c7.83,7.84,17.1801,14.15,27.58,18.46
		c10.03,4.16,21.02,6.45,32.55,6.45c11.53,0,22.52-2.3,32.55-6.46c10.39-4.3,19.74-10.61,27.5699-18.45
		c7.83-7.82,14.15-17.17,18.46-27.57c4.16-10.03,6.46-21.03,6.46-32.56C425.2013,328.6226,422.9013,317.6326,418.7413,307.6026z
		 M340.1613,411.0226c-9.61,0-18.77-1.91-27.12-5.38c-8.66-3.58-16.46-8.85-22.99-15.38c-6.53-6.53-11.79-14.32-15.38-22.98
		l13.1-5.42c2.87,6.93,7.0699,13.16,12.3,18.38v0.01c5.22,5.22,11.46,9.43,18.39,12.3c6.69,2.77,14.02,4.3,21.7,4.3
		s15.01-1.53,21.7-4.3l5.42,13.09C358.9313,409.1125,349.7713,411.0226,340.1613,411.0226z"/>
	<path fill="none" d="M425.2913,340.1526v-50.97c-4.01-6.69-8.79-12.86-14.22-18.4v69.37h-0.05c0,9.61-1.91,18.77-5.38,27.13
		c-3.59,8.66-8.85,16.45-15.38,22.98l-10.01-10.01c5.22-5.22,9.43-11.46,12.3-18.39c2.77-6.69,4.3-14.02,4.3-21.71v-81.42
		c-5.81-4.06-12.08-7.5-18.72-10.25c-11.7-4.86-24.52-7.54-37.97-7.54c-13.45,0-26.28,2.68-37.98,7.54
		c-12.13,5.02-23.04,12.38-32.18,21.52s-16.5,20.05-21.53,32.18c-4.85,11.69-7.53,24.52-7.53,37.97h14.18
		c0,11.53,2.3,22.52,6.46,32.55c4.3,10.39,10.62,19.75,18.45,27.58c7.83,7.84,17.1801,14.15,27.58,18.46
		c10.03,4.16,21.02,6.45,32.55,6.45c11.53,0,22.52-2.3,32.55-6.46c10.39-4.3,19.74-10.61,27.5699-18.45
		c7.83-7.82,14.15-17.17,18.46-27.57l13.09,5.42c4.86-11.7,7.54-24.52,7.54-37.98H425.2913z M340.1613,411.0226
		c-9.61,0-18.77-1.91-27.12-5.38c-8.66-3.58-16.46-8.85-22.99-15.38c-6.53-6.53-11.79-14.32-15.38-22.98l13.1-5.42
		c2.87,6.93,7.0699,13.16,12.3,18.38v0.01c5.22,5.22,11.46,9.43,18.39,12.3c6.69,2.77,14.02,4.3,21.7,4.3s15.01-1.53,21.7-4.3
		l5.42,13.09C358.9313,409.1125,349.7713,411.0226,340.1613,411.0226z"/>
	<path fill="none" d="M411.0713,270.7826v69.37h-0.05c0,9.61-1.91,18.77-5.38,27.13c-3.59,8.66-8.85,16.45-15.38,22.98l-10.01-10.01
		c5.22-5.22,9.43-11.46,12.3-18.39c2.77-6.69,4.3-14.02,4.3-21.71v-98.2c-4.26-2.47-8.7-4.67-13.29-6.57
		c-13.36-5.55-28.02-8.61-43.4-8.61c-15.37,0-30.03,3.06-43.4,8.61c-13.86,5.74-26.33,14.15-36.78,24.6
		c-10.45,10.44-18.86,22.91-24.6,36.77l13.09,5.43c-4.85,11.69-7.53,24.52-7.53,37.97h14.18c0,11.53,2.3,22.52,6.46,32.55
		c4.3,10.39,10.62,19.75,18.45,27.58c7.83,7.84,17.1801,14.15,27.58,18.46c10.03,4.16,21.02,6.45,32.55,6.45
		c11.53,0,22.52-2.3,32.55-6.46c10.39-4.3,19.74-10.61,27.5699-18.45c7.83-7.82,14.15-17.17,18.46-27.57l13.09,5.42
		c-5.02,12.13-12.38,23.04-21.52,32.18s-20.05,16.51-32.18,21.52c-11.7,4.86-24.52,7.54-37.97,7.54c-13.45,0-26.28-2.68-37.98-7.54
		c-12.13-5.01-23.04-12.38-32.18-21.52s-16.5-20.05-21.52-32.18c-4.86-11.7-7.54-24.52-7.54-37.98h-14.17
		c0,15.38,3.06,30.04,8.61,43.41c5.74,13.86,14.16,26.33,24.6,36.77c10.45,10.45,22.92,18.86,36.78,24.6
		c13.37,5.55,28.03,8.61,43.4,8.61c15.38,0,30.04-3.06,43.4-8.61c13.86-5.74,26.33-14.16,36.77-24.6s18.86-22.91,24.6-36.77
		c5.55-13.37,8.61-28.03,8.61-43.41c0-15.37-3.06-30.03-8.61-43.4c-1.6-3.86-3.41-7.62-5.42-11.25v54.65h-14.22v-74.88
		c-1.6-1.82-3.25-3.58-4.96-5.29c-2.93-2.93-6.02-5.6999-9.26-8.29v17.55 M340.1613,411.0226c-9.61,0-18.77-1.91-27.12-5.38
		c-8.66-3.58-16.46-8.85-22.99-15.38c-6.53-6.53-11.79-14.32-15.38-22.98l13.1-5.42c2.87,6.93,7.0699,13.16,12.3,18.38v0.01
		c5.22,5.22,11.46,9.43,18.39,12.3c6.69,2.77,14.02,4.3,21.7,4.3s15.01-1.53,21.7-4.3l5.42,13.09
		C358.9313,409.1125,349.7713,411.0226,340.1613,411.0226z"/>
	<path fill="none" d="M400.2813,400.2826c7.83-7.82,14.15-17.17,18.46-27.57l13.09,5.42c-5.02,12.13-12.38,23.04-21.52,32.18
		s-20.05,16.51-32.18,21.52c-11.7,4.86-24.52,7.54-37.97,7.54c-13.45,0-26.28-2.68-37.98-7.54c-12.13-5.01-23.04-12.38-32.18-21.52
		s-16.5-20.05-21.52-32.18c-4.86-11.7-7.54-24.52-7.54-37.98h-14.17c0-15.37,3.06-30.03,8.61-43.4l13.09,5.43
		c-4.85,11.69-7.53,24.52-7.53,37.97h14.18c0,11.53,2.3,22.52,6.46,32.55c4.3,10.39,10.62,19.75,18.45,27.58
		c7.83,7.84,17.1801,14.15,27.58,18.46c10.03,4.16,21.02,6.45,32.55,6.45c11.53,0,22.52-2.3,32.55-6.46
		C383.1013,414.4326,392.4513,408.1226,400.2813,400.2826z M367.2813,405.6426c-8.35,3.47-17.5099,5.38-27.12,5.38
		c-9.61,0-18.77-1.91-27.12-5.38c-8.66-3.58-16.46-8.85-22.99-15.38c-6.53-6.53-11.79-14.32-15.38-22.98l13.1-5.42
		c2.87,6.93,7.0699,13.16,12.3,18.38v0.01c5.22,5.22,11.46,9.43,18.39,12.3c6.69,2.77,14.02,4.3,21.7,4.3s15.01-1.53,21.7-4.3
		L367.2813,405.6426z"/>
	<path fill="none" d="M418.7413,307.6026c-2.1-5.0601-4.68-9.88-7.67-14.4v46.95h-0.05c0,9.61-1.91,18.77-5.38,27.13
		c-3.59,8.66-8.85,16.45-15.38,22.98l-10.01-10.01c5.22-5.22,9.43-11.46,12.3-18.39c2.77-6.69,4.3-14.02,4.3-21.71v-63.37
		c-7.08-6.34-15.23-11.51-24.14-15.2c-10.03-4.16-21.02-6.46-32.55-6.46c-11.53,0-22.52,2.29-32.55,6.45
		c-10.4,4.31-19.75,10.62-27.58,18.46c-7.83,7.83-14.15,17.18-18.45,27.57c-4.16,10.03-6.46,21.02-6.46,32.55
		c0,11.53,2.3,22.52,6.46,32.55c4.3,10.39,10.62,19.75,18.45,27.58c7.83,7.84,17.1801,14.15,27.58,18.46
		c10.03,4.16,21.02,6.45,32.55,6.45c11.53,0,22.52-2.3,32.55-6.46c10.39-4.3,19.74-10.61,27.5699-18.45
		c7.83-7.82,14.15-17.17,18.46-27.57c4.16-10.03,6.46-21.03,6.46-32.56C425.2013,328.6226,422.9013,317.6326,418.7413,307.6026z
		 M340.1613,411.0226c-9.61,0-18.77-1.91-27.12-5.38c-8.66-3.58-16.46-8.85-22.99-15.38c-6.53-6.53-11.79-14.32-15.38-22.98
		l13.1-5.42c2.87,6.93,7.0699,13.16,12.3,18.38v0.01c5.22,5.22,11.46,9.43,18.39,12.3c6.69,2.77,14.02,4.3,21.7,4.3
		s15.01-1.53,21.7-4.3l5.42,13.09C358.9313,409.1125,349.7713,411.0226,340.1613,411.0226z"/>
	<path fill="none" d="M425.2913,340.1526v-50.97c-4.01-6.69-8.79-12.86-14.22-18.4v69.37h-0.05c0,9.61-1.91,18.77-5.38,27.13
		c-3.59,8.66-8.85,16.45-15.38,22.98l-10.01-10.01c5.22-5.22,9.43-11.46,12.3-18.39c2.77-6.69,4.3-14.02,4.3-21.71v-81.42
		c-5.81-4.06-12.08-7.5-18.72-10.25c-11.7-4.86-24.52-7.54-37.97-7.54c-13.45,0-26.28,2.68-37.98,7.54
		c-12.13,5.02-23.04,12.38-32.18,21.52s-16.5,20.05-21.53,32.18c-4.85,11.69-7.53,24.52-7.53,37.97h14.18
		c0,11.53,2.3,22.52,6.46,32.55c4.3,10.39,10.62,19.75,18.45,27.58c7.83,7.84,17.1801,14.15,27.58,18.46
		c10.03,4.16,21.02,6.45,32.55,6.45c11.53,0,22.52-2.3,32.55-6.46c10.39-4.3,19.74-10.61,27.5699-18.45
		c7.83-7.82,14.15-17.17,18.46-27.57l13.09,5.42c4.86-11.7,7.54-24.52,7.54-37.98H425.2913z M340.1613,411.0226
		c-9.61,0-18.77-1.91-27.12-5.38c-8.66-3.58-16.46-8.85-22.99-15.38c-6.53-6.53-11.79-14.32-15.38-22.98l13.1-5.42
		c2.87,6.93,7.0699,13.16,12.3,18.38v0.01c5.22,5.22,11.46,9.43,18.39,12.3c6.69,2.77,14.02,4.3,21.7,4.3s15.01-1.53,21.7-4.3
		l5.42,13.09C358.9313,409.1125,349.7713,411.0226,340.1613,411.0226z"/>
	<path fill="none" d="M411.0713,270.7826v69.37h-0.05c0,9.61-1.91,18.77-5.38,27.13c-3.59,8.66-8.85,16.45-15.38,22.98l-10.01-10.01
		c5.22-5.22,9.43-11.46,12.3-18.39c2.77-6.69,4.3-14.02,4.3-21.71v-98.2c-4.26-2.47-8.7-4.67-13.29-6.57
		c-13.36-5.55-28.02-8.61-43.4-8.61c-15.37,0-30.03,3.06-43.4,8.61c-13.86,5.74-26.33,14.15-36.78,24.6
		c-10.45,10.44-18.86,22.91-24.6,36.77l13.09,5.43c-4.85,11.69-7.53,24.52-7.53,37.97h14.18c0,11.53,2.3,22.52,6.46,32.55
		c4.3,10.39,10.62,19.75,18.45,27.58c7.83,7.84,17.1801,14.15,27.58,18.46c10.03,4.16,21.02,6.45,32.55,6.45
		c11.53,0,22.52-2.3,32.55-6.46c10.39-4.3,19.74-10.61,27.5699-18.45c7.83-7.82,14.15-17.17,18.46-27.57l13.09,5.42
		c-5.02,12.13-12.38,23.04-21.52,32.18s-20.05,16.51-32.18,21.52c-11.7,4.86-24.52,7.54-37.97,7.54c-13.45,0-26.28-2.68-37.98-7.54
		c-12.13-5.01-23.04-12.38-32.18-21.52s-16.5-20.05-21.52-32.18c-4.86-11.7-7.54-24.52-7.54-37.98h-14.17
		c0,15.38,3.06,30.04,8.61,43.41c5.74,13.86,14.16,26.33,24.6,36.77c10.45,10.45,22.92,18.86,36.78,24.6
		c13.37,5.55,28.03,8.61,43.4,8.61c15.38,0,30.04-3.06,43.4-8.61c13.86-5.74,26.33-14.16,36.77-24.6s18.86-22.91,24.6-36.77
		c5.55-13.37,8.61-28.03,8.61-43.41c0-15.37-3.06-30.03-8.61-43.4c-1.6-3.86-3.41-7.62-5.42-11.25v54.65h-14.22v-74.88
		c-1.6-1.82-3.25-3.58-4.96-5.29c-2.93-2.93-6.02-5.6999-9.26-8.29v17.55 M340.1613,411.0226c-9.61,0-18.77-1.91-27.12-5.38
		c-8.66-3.58-16.46-8.85-22.99-15.38c-6.53-6.53-11.79-14.32-15.38-22.98l13.1-5.42c2.87,6.93,7.0699,13.16,12.3,18.38v0.01
		c5.22,5.22,11.46,9.43,18.39,12.3c6.69,2.77,14.02,4.3,21.7,4.3s15.01-1.53,21.7-4.3l5.42,13.09
		C358.9313,409.1125,349.7713,411.0226,340.1613,411.0226z"/>
</g>
<g id="txt">
	<g>
		<path d="M182.2722,578.1901v19.9922h-6.6641v-19.9922h-5.4746v-5.6436h17.6123v5.6436H182.2722z"/>
		<path d="M196.7897,585.364c0-1.9033,0.3516-3.6768,1.0547-5.3203c0.7021-1.6436,1.6768-3.0771,2.9238-4.3018
			c1.2461-1.2236,2.7373-2.1807,4.4707-2.873c1.7344-0.6904,3.6436-1.0361,5.7295-1.0361c2.0625,0,3.9658,0.3457,5.7119,1.0361
			c1.7451,0.6924,3.2471,1.6494,4.5049,2.873c1.2578,1.2246,2.2383,2.6582,2.9414,4.3018c0.7021,1.6436,1.0537,3.417,1.0537,5.3203
			c0,1.9043-0.3516,3.6777-1.0537,5.3213c-0.7031,1.6436-1.6836,3.0771-2.9414,4.3008c-1.2578,1.2246-2.7598,2.1826-4.5049,2.873
			c-1.7461,0.6914-3.6494,1.0371-5.7119,1.0371c-2.0859,0-3.9951-0.3457-5.7295-1.0371c-1.7334-0.6904-3.2246-1.6484-4.4707-2.873
			c-1.2471-1.2236-2.2217-2.6572-2.9238-4.3008C197.1413,589.0417,196.7897,587.2682,196.7897,585.364z M203.7605,585.364
			c0,1.0205,0.1924,1.9609,0.5781,2.8223c0.3848,0.8613,0.9062,1.6094,1.5635,2.2441s1.4219,1.1279,2.2949,1.4785
			c0.8721,0.3525,1.7969,0.5273,2.7715,0.5273c0.9736,0,1.8975-0.1748,2.7705-0.5273c0.8721-0.3506,1.6436-0.8438,2.3125-1.4785
			c0.668-0.6348,1.1953-1.3828,1.5811-2.2441c0.3848-0.8613,0.5781-1.8018,0.5781-2.8223c0-1.0195-0.1934-1.96-0.5781-2.8213
			c-0.3857-0.8613-0.9131-1.6094-1.5811-2.2441c-0.6689-0.6348-1.4404-1.1279-2.3125-1.4795
			c-0.873-0.3506-1.7969-0.5264-2.7705-0.5264c-0.9746,0-1.8994,0.1758-2.7715,0.5264c-0.873,0.3516-1.6377,0.8447-2.2949,1.4795
			s-1.1787,1.3828-1.5635,2.2441C203.9528,583.404,203.7605,584.3444,203.7605,585.364z"/>
		<path d="M235.7194,585.364c0-1.9033,0.3516-3.6768,1.0537-5.3203s1.6777-3.0771,2.9238-4.3018
			c1.2471-1.2236,2.7373-2.1807,4.4717-2.873c1.7334-0.6904,3.6426-1.0361,5.7285-1.0361c2.0625,0,3.9668,0.3457,5.7119,1.0361
			c1.7451,0.6924,3.2471,1.6494,4.5049,2.873c1.2588,1.2246,2.2383,2.6582,2.9414,4.3018c0.7021,1.6436,1.0537,3.417,1.0537,5.3203
			c0,1.9043-0.3516,3.6777-1.0537,5.3213c-0.7031,1.6436-1.6826,3.0771-2.9414,4.3008c-1.2578,1.2246-2.7598,2.1826-4.5049,2.873
			c-1.7451,0.6914-3.6494,1.0371-5.7119,1.0371c-2.0859,0-3.9951-0.3457-5.7285-1.0371c-1.7344-0.6904-3.2246-1.6484-4.4717-2.873
			c-1.2461-1.2236-2.2217-2.6572-2.9238-4.3008S235.7194,587.2682,235.7194,585.364z M242.6892,585.364
			c0,1.0205,0.1924,1.9609,0.5781,2.8223s0.9062,1.6094,1.5645,2.2441c0.6572,0.6348,1.4219,1.1279,2.2949,1.4785
			c0.8721,0.3525,1.7959,0.5273,2.7705,0.5273s1.8984-0.1748,2.7715-0.5273c0.8721-0.3506,1.6426-0.8438,2.3115-1.4785
			s1.1953-1.3828,1.581-2.2441s0.5781-1.8018,0.5781-2.8223c0-1.0195-0.1924-1.96-0.5781-2.8213s-0.9121-1.6094-1.581-2.2441
			s-1.4395-1.1279-2.3115-1.4795c-0.873-0.3506-1.7969-0.5264-2.7715-0.5264s-1.8984,0.1758-2.7705,0.5264
			c-0.873,0.3516-1.6377,0.8447-2.2949,1.4795c-0.6582,0.6348-1.1787,1.3828-1.5645,2.2441S242.6892,584.3444,242.6892,585.364z"/>
		<path d="M282.4694,572.5466v19.9922h7.9893v5.6436h-14.6533v-25.6357H282.4694z"/>
		<path d="M319.2917,581.114c-1.542-1.8809-3.4463-2.8213-5.7119-2.8213c-0.998,0-1.9209,0.1816-2.7715,0.5439
			c-0.8496,0.3623-1.5811,0.8555-2.1924,1.4785c-0.6123,0.624-1.0947,1.3662-1.4453,2.2275
			c-0.3516,0.8613-0.5273,1.79-0.5273,2.7881c0,1.0195,0.1758,1.96,0.5273,2.8213c0.3506,0.8623,0.8379,1.6104,1.4619,2.2441
			c0.623,0.6348,1.3545,1.1338,2.1934,1.4961c0.8379,0.3633,1.7451,0.5439,2.7197,0.5439c2.1299,0,4.0459-0.9062,5.7461-2.7197
			v7.8877l-0.6807,0.2383c-1.0195,0.3623-1.9717,0.6289-2.8555,0.7988s-1.7568,0.2549-2.6182,0.2549
			c-1.7676,0-3.4629-0.335-5.083-1.0029c-1.6211-0.668-3.0488-1.6094-4.2842-2.8223c-1.2354-1.2119-2.2266-2.6514-2.9746-4.3174
			s-1.1221-3.4854-1.1221-5.457c0-1.9727,0.3682-3.7793,1.1045-5.4229s1.7227-3.0605,2.958-4.25
			c1.2354-1.1904,2.6699-2.1191,4.3018-2.7881s3.3428-1.0029,5.1338-1.0029c1.0195,0,2.0225,0.1074,3.0088,0.3223
			c0.9863,0.2158,2.0234,0.5498,3.1113,1.0029V581.114z"/>
		<path d="M338.739,582.4401h9.6221v-9.8936h6.6641v25.6357h-6.6641v-10.5742h-9.6221v10.5742h-6.6641v-25.6357h6.6641V582.4401z"/>
		<path d="M383.5847,593.7282h-9.5195l-1.5303,4.4541h-7.1064l9.7588-25.6357h7.2754l9.7578,25.6357h-7.1055L383.5847,593.7282z
			 M381.8171,588.6628l-2.9922-8.5342l-2.9922,8.5342H381.8171z"/>
		<path d="M402.6247,598.1823v-25.6357h6.6641l12.3076,15.6738v-15.6738h6.6299v25.6357h-6.6299l-12.3076-15.6738v15.6738H402.6247z
			"/>
		<path d="M454.0319,583.8347h13.2266c0,1.3594-0.0576,2.5957-0.1699,3.7061c-0.1143,1.1104-0.3408,2.1416-0.6807,3.0938
			c-0.4756,1.3379-1.1221,2.5215-1.9375,3.5527c-0.8164,1.0322-1.7744,1.8926-2.873,2.584
			c-1.0996,0.6914-2.3066,1.2188-3.6211,1.5811c-1.3154,0.3623-2.6982,0.5439-4.1484,0.5439c-1.9941,0-3.8135-0.3291-5.457-0.9863
			c-1.6436-0.6562-3.0547-1.5801-4.2324-2.7705c-1.1787-1.1904-2.0967-2.6182-2.7539-4.2842
			c-0.6582-1.666-0.9863-3.5068-0.9863-5.5244c0-1.9951,0.3232-3.8252,0.9688-5.4912c0.6465-1.666,1.5645-3.0889,2.7539-4.2676
			c1.1904-1.1777,2.624-2.0957,4.3018-2.7539c1.6768-0.6572,3.5469-0.9854,5.6094-0.9854c2.6748,0,5.0205,0.5771,7.0381,1.7334
			s3.6152,2.9473,4.7939,5.3721l-6.3242,2.6182c-0.5889-1.4053-1.3545-2.4141-2.2949-3.0264
			c-0.9404-0.6113-2.0117-0.918-3.2129-0.918c-0.9971,0-1.9043,0.1875-2.7197,0.5615c-0.8164,0.374-1.5127,0.9062-2.0908,1.5977
			s-1.0322,1.5244-1.3604,2.499c-0.3291,0.9746-0.4932,2.0625-0.4932,3.2637c0,1.0889,0.1416,2.0977,0.4248,3.0264
			c0.2832,0.9297,0.709,1.7344,1.2754,2.4141s1.2695,1.207,2.1084,1.5811c0.8379,0.374,1.8125,0.5605,2.9238,0.5605
			c0.6572,0,1.292-0.0732,1.9043-0.2207c0.6113-0.1475,1.1611-0.3848,1.6484-0.7139c0.4873-0.3281,0.8896-0.7529,1.207-1.2754
			c0.3174-0.5205,0.5322-1.1553,0.6465-1.9033h-5.4746V583.8347z"/>
		<path d="M493.5397,578.1901h-7.9219v4.2842h7.4795v5.6436h-7.4795v4.4209h7.9219v5.6436h-14.5859v-25.6357h14.5859V578.1901z"/>
		<path d="M527.1315,598.1823h-8.2959l-6.3584-9.8604v9.8604h-6.6641v-25.6357h10.3701c1.4277,0,2.6748,0.21,3.7402,0.6289
			c1.0654,0.4199,1.9434,0.9912,2.6348,1.7168s1.2129,1.5645,1.5645,2.5156c0.3506,0.9521,0.5264,1.9727,0.5264,3.0605
			c0,1.9492-0.4707,3.5303-1.4111,4.7432s-2.3281,2.0342-4.165,2.4648L527.1315,598.1823z M512.4772,584.0046h1.2578
			c1.3145,0,2.3232-0.2725,3.0264-0.8164c0.7021-0.5439,1.0537-1.3262,1.0537-2.3457c0-1.0205-0.3516-1.8018-1.0537-2.3457
			c-0.7031-0.5449-1.7119-0.8164-3.0264-0.8164h-1.2578V584.0046z"/>
	</g>
</g>
</svg>
